# xmcd
#
# Track frame offsets: 
#        150
#        13385
#        36684
#        53093
#        69951
#        99517
#        119323
#        150003
#        169713
#        187952
#        206693
#        219671
#        239215
#        256279
#        269557
#        286269
#        332969
#
# Disc length: 4440 seconds
#
# Revision: 6
# Processed by: cddbd v1.5.2PL0 Copyright (c) Steve Scherf et al.
# Submitted via: ExactAudioCopy v0.95b2
#
DISCID=01115611
DTITLE=Sarah Brightman - Fly - A Question of Honour -
DYEAR=2006
DGENRE=New Age
TTITLE0=The Fly
TTITLE1=Why
TTITLE2=Murder In Mairyland Park
TTITLE3=How Can Heaven Love Me (Feat. Chris Thompson)
TTITLE4=A Question Of Honour
TTITLE5=Ghost In The Machinery
TTITLE6=You Take My Breath Away
TTITLE7=Something In The Air (Feat. Tom Jones)
TTITLE8=Heaven Is Here
TTITLE9=I Loved You
TTITLE10=Fly
TTITLE11=Do You Wanna Be Loved
TTITLE12=How Can Heaven Love Me (Video Version)
TTITLE13=A Question Of Honour (Alternative Radio Version)
TTITLE14=On The Nile
TTITLE15=Secret01
TTITLE16=Secret02
EXTD=YEAR: 2006
EXTT0=
EXTT1=
EXTT2=
EXTT3=
EXTT4=
EXTT5=
EXTT6=
EXTT7=
EXTT8=
EXTT9=
EXTT10=
EXTT11=
EXTT12=
EXTT13=
EXTT14=
EXTT15=
EXTT16=
PLAYORDER=
